<?xml version="1.0" standalone="no"?>
<!DOCTYPE svg PUBLIC "-//W3C//DTD SVG 20010904//EN"
 "http://www.w3.org/TR/2001/REC-SVG-20010904/DTD/svg10.dtd">
<svg version="1.0" xmlns="http://www.w3.org/2000/svg"
 width="1624.000000pt" height="1258.000000pt" viewBox="0 0 1624.000000 1258.000000"
 preserveAspectRatio="xMidYMid meet">

<g transform="translate(0.000000,1258.000000) scale(0.100000,-0.100000)"
fill="#000000" stroke="none">
<path d="M8120 11863 c-569 -58 -1045 -273 -1416 -640 -88 -87 -179 -191 -173
-198 3 -2 41 2 84 10 148 25 359 38 630 38 403 0 748 -27 1113 -89 443 -74
663 -155 1004 -367 299 -187 628 -485 826 -749 76 -102 166 -248 183 -297 6
-17 15 -31 20 -31 19 0 40 108 40 207 0 357 -241 718 -685 1027 -53 37 -96 69
-96 71 0 7 44 -12 157 -69 141 -70 293 -173 411 -276 58 -51 92 -75 92 -65 0
9 -7 51 -16 93 -56 273 -212 542 -445 767 -396 382 -917 579 -1519 573 -96 0
-191 -3 -210 -5z"/>
<path d="M6945 10799 c-327 -19 -664 -69 -809 -119 -231 -79 -346 -320 -346
-728 0 -236 36 -370 118 -444 42 -38 61 -43 130 -39 17 2 32 -2 32 -8 0 -5
-13 -77 -29 -158 -28 -140 -52 -300 -66 -442 l-6 -64 93 6 c171 12 811 28 963
25 l150 -3 -1 -190 c-2 -376 -65 -696 -236 -1193 -44 -129 -67 -207 -61 -213
16 -16 140 -56 233 -76 67 -14 129 -18 290 -18 178 1 217 4 294 23 49 12 109
32 135 44 l46 23 -55 2 c-104 5 -242 25 -342 49 -115 28 -248 80 -248 98 0 7
14 52 30 102 82 240 149 587 171 884 17 220 1 652 -27 729 -7 22 -832 6 -1119
-22 -17 -2 -20 3 -17 36 7 92 82 303 150 422 36 64 43 71 83 81 70 18 289 43
479 55 235 15 835 6 1050 -15 203 -20 450 -60 538 -87 510 -156 1198 -815
1433 -1374 42 -101 53 -109 117 -76 113 57 218 277 269 561 24 136 24 384 -1
465 -57 192 -296 517 -605 825 -198 197 -334 311 -529 441 -347 230 -669 328
-1267 385 -193 18 -825 26 -1040 13z"/>
<path d="M7695 9023 c3 -43 8 -105 11 -139 l5 -61 292 -6 c161 -4 437 -14 615
-23 178 -9 325 -14 328 -12 6 6 -67 210 -80 225 -22 23 -474 65 -841 78 -93 3
-207 8 -253 11 l-83 6 6 -79z"/>
<path d="M6761 8588 c-58 -30 -84 -76 -78 -140 5 -62 29 -96 84 -120 101 -45
203 21 203 130 0 114 -109 182 -209 130z"/>
<path d="M7950 8558 c-52 -36 -72 -69 -72 -120 0 -90 57 -148 143 -148 56 0
107 31 131 80 65 129 -85 268 -202 188z"/>
<path d="M9315 8379 c-162 -172 -284 -434 -375 -803 -38 -155 -51 -220 -140
-686 -49 -260 -80 -363 -133 -442 -81 -121 -241 -255 -383 -319 -163 -74 -364
-90 -470 -36 -97 49 -157 141 -187 287 -20 96 -31 221 -22 261 l7 31 77 -6
c42 -4 113 -14 159 -23 46 -8 84 -14 86 -12 25 31 106 162 103 166 -10 10
-173 43 -292 59 -156 22 -421 22 -580 0 -160 -21 -195 -32 -195 -57 0 -31 34
-90 74 -128 l36 -35 63 13 c134 29 138 29 144 14 10 -25 -5 -205 -22 -268 -20
-76 -67 -178 -101 -218 -77 -93 -177 -114 -267 -57 -82 52 -134 163 -172 365
-36 195 -106 382 -290 770 -218 460 -258 581 -259 790 0 98 4 144 17 189 10
32 16 60 13 63 -10 10 -119 -136 -160 -216 -90 -175 -128 -361 -127 -627 0
-190 19 -370 57 -550 119 -563 141 -703 151 -954 7 -194 -9 -388 -48 -583
l-30 -148 41 -77 c172 -319 440 -627 745 -856 237 -179 515 -319 785 -396
l104 -30 86 26 c285 87 625 269 905 484 501 384 956 998 1015 1370 14 94 12
281 -5 417 -23 181 -57 342 -165 783 -160 653 -190 822 -197 1120 -4 159 -2
225 10 295 9 49 15 91 13 92 -2 2 -33 -29 -71 -68z"/>
<path d="M9553 8383 c-15 -87 -8 -410 10 -510 20 -104 61 -252 81 -290 l13
-25 21 30 c43 60 113 219 128 292 28 134 3 265 -73 380 -37 56 -146 170 -163
170 -5 0 -12 -21 -17 -47z"/>
<path d="M9976 7689 c-39 -45 -55 -81 -77 -167 -54 -211 -31 -487 77 -907 79
-311 97 -432 97 -655 1 -153 -3 -203 -21 -287 -39 -178 -109 -344 -210 -493
-28 -41 -49 -76 -47 -79 7 -6 310 200 403 274 206 166 387 348 557 558 57 71
76 103 69 112 -5 8 -47 68 -94 134 -295 418 -534 914 -671 1390 -24 83 -46
151 -50 151 -4 0 -19 -14 -33 -31z"/>
<path d="M1120 3153 c0 -300 4 -505 11 -533 31 -133 133 -255 264 -316 156
-71 347 -76 499 -12 116 49 204 126 251 218 53 105 55 126 55 647 l0 483 -165
0 -164 0 -3 -477 c-3 -545 2 -515 -93 -559 -94 -44 -221 -26 -286 42 l-34 35
-3 480 -3 479 -164 0 -165 0 0 -487z"/>
<path d="M2435 3628 c-3 -7 -4 -314 -3 -683 l3 -670 167 -3 168 -2 2 372 3
372 153 -257 153 -258 47 3 47 3 150 252 150 253 3 -370 2 -370 168 2 167 3 3
683 2 682 -170 0 -169 0 -177 -296 c-97 -163 -179 -292 -184 -288 -4 5 -85
138 -179 297 l-172 287 -165 0 c-122 0 -166 -3 -169 -12z"/>
<path d="M4060 2955 l0 -685 170 0 170 0 2 371 3 370 150 -253 151 -253 48 0
48 0 139 234 c76 129 145 244 153 255 13 19 15 -23 15 -351 l1 -373 165 0 165
0 0 685 0 685 -167 -2 -166 -3 -175 -292 c-96 -161 -178 -291 -182 -288 -4 2
-85 135 -181 295 l-173 290 -168 0 -168 0 0 -685z"/>
<path d="M5945 3373 c-53 -148 -147 -403 -207 -568 -151 -413 -188 -515 -188
-526 0 -5 76 -9 174 -9 l173 0 45 118 44 117 234 0 235 0 44 -117 44 -118 173
0 c139 0 174 3 174 13 0 8 -58 171 -129 363 -70 192 -181 494 -246 672 l-119
322 -177 0 -176 0 -98 -267z m303 -295 c57 -155 84 -239 80 -244 -3 -2 -54 -3
-115 -2 l-109 3 55 148 c29 81 57 147 62 147 4 0 16 -24 27 -52z"/>
<path d="M6987 3633 c-4 -3 -7 -312 -7 -685 l0 -678 170 0 170 0 0 220 0 220
78 0 77 0 122 -218 121 -217 191 -3 c105 -1 191 0 191 3 0 2 -63 118 -140 256
l-140 251 58 57 c40 38 71 80 97 133 32 67 38 89 43 166 6 106 -8 173 -52 257
-61 117 -181 206 -314 234 -57 12 -654 16 -665 4z m640 -330 c102 -48 104
-195 4 -251 -35 -20 -53 -22 -175 -22 l-136 0 0 145 0 145 136 0 c106 0 144
-4 171 -17z"/>
<path d="M8750 2955 l0 -685 165 0 165 0 1 83 c0 45 0 166 -1 270 l-1 187 275
0 276 0 0 -270 0 -270 165 0 165 0 0 685 0 685 -165 0 -165 0 0 -255 0 -255
-272 2 -273 3 -3 253 -2 252 -165 0 -165 0 0 -685z"/>
<path d="M10546 3631 c-4 -5 -47 -121 -97 -258 -153 -418 -319 -873 -356 -973
-19 -52 -37 -103 -40 -113 -5 -16 6 -17 173 -15 l177 3 43 115 42 115 234 3
234 2 45 -117 45 -118 177 -3 c97 -1 177 -1 177 1 0 2 -110 305 -245 673 -135
368 -248 675 -250 682 -5 15 -350 18 -359 3z m235 -637 c26 -71 50 -137 54
-146 7 -17 -2 -18 -110 -18 -89 0 -116 3 -113 13 15 60 105 286 113 284 6 -2
31 -62 56 -133z"/>
<path d="M11490 3343 c0 -164 0 -435 0 -603 0 -168 0 -342 0 -387 l0 -83 165
0 165 0 2 373 3 372 154 -257 153 -258 47 0 46 1 150 254 150 253 5 -366 5
-367 168 -3 167 -2 0 685 0 685 -169 0 -168 0 -178 -296 c-97 -162 -179 -293
-182 -290 -3 3 -83 135 -178 293 l-173 288 -166 3 -166 2 0 -297z"/>
<path d="M13110 2955 l0 -685 170 0 170 0 0 685 0 685 -170 0 -170 0 0 -685z"/>
<path d="M13700 3345 c0 -162 0 -434 0 -605 0 -170 0 -346 0 -391 l0 -81 353
5 c325 4 358 6 425 26 131 38 222 93 312 185 195 200 243 504 120 761 -75 158
-202 275 -370 343 -109 44 -190 52 -526 52 l-314 0 0 -295z m727 -59 c66 -30
147 -105 177 -165 10 -18 24 -62 31 -98 34 -163 -48 -322 -205 -397 -63 -30
-69 -31 -232 -34 l-168 -3 0 366 0 367 168 -4 c159 -3 170 -4 229 -32z"/>
<path d="M4542 1970 c-76 -27 -115 -54 -172 -118 -112 -126 -142 -252 -86
-367 39 -79 91 -118 205 -156 138 -46 170 -64 188 -106 28 -69 -13 -149 -95
-185 -41 -18 -51 -19 -99 -8 -92 20 -148 85 -172 199 -15 69 -25 81 -68 81
-72 0 -103 -43 -103 -143 0 -118 66 -214 190 -275 51 -25 65 -27 175 -27 136
0 185 13 260 71 43 32 45 33 55 14 8 -15 21 -20 53 -20 54 0 118 36 225 130
l83 72 -7 -48 c-8 -52 -8 -57 -6 -97 3 -46 57 -92 124 -107 49 -11 67 -11 122
3 112 28 225 88 308 166 41 39 78 68 81 65 3 -3 -1 -31 -9 -62 -29 -121 -13
-173 56 -192 101 -27 145 3 324 220 l111 135 5 -125 c3 -77 11 -135 19 -152
20 -40 70 -59 156 -60 63 0 84 5 157 37 45 21 107 55 136 77 30 22 56 38 59
35 2 -3 13 -20 22 -39 24 -45 91 -94 153 -113 101 -30 307 -13 412 34 23 10
54 33 69 51 15 18 29 31 30 29 2 -2 8 -15 15 -29 56 -109 343 -119 566 -21 58
26 192 156 202 197 9 35 -15 54 -69 54 -29 0 -49 -8 -81 -34 -51 -43 -142 -89
-218 -111 -71 -20 -157 -17 -172 7 -16 26 14 43 124 68 154 36 190 62 190 135
0 45 -7 48 -171 69 -135 17 -159 23 -159 37 0 19 47 27 135 23 103 -4 220 10
251 31 15 9 33 46 54 110 18 53 30 98 27 101 -2 3 -41 -4 -86 -16 -44 -11
-152 -27 -238 -36 -247 -24 -325 -51 -380 -133 l-23 -34 0 29 c0 65 -77 134
-166 149 -147 23 -349 -89 -429 -238 -43 -80 -111 -172 -155 -210 -22 -19 -70
-47 -106 -62 -91 -39 -98 -31 -84 91 16 141 13 252 -9 300 -39 86 -107 105
-207 58 -67 -32 -95 -59 -180 -179 -37 -52 -72 -95 -78 -95 -6 0 -20 19 -31
43 -28 59 -60 75 -122 59 -60 -16 -123 -59 -237 -163 -87 -78 -203 -149 -245
-149 -46 0 -35 85 39 303 51 151 59 194 38 215 -16 16 -74 15 -135 -3 -58 -17
-79 -39 -133 -136 -41 -74 -252 -292 -315 -326 l-41 -21 1 102 c0 97 -1 105
-29 145 -37 53 -83 80 -225 132 -139 52 -181 86 -181 147 0 22 5 53 11 69 23
61 146 158 192 151 18 -2 23 -11 25 -43 5 -54 -12 -104 -48 -150 -48 -60 -44
-65 62 -80 68 -10 114 8 137 53 78 153 64 328 -29 374 -48 25 -177 23 -248 -2z
m2691 -630 c-1 -14 -5 -39 -9 -57 -5 -26 -2 -33 16 -43 55 -30 166 21 205 93
21 39 35 48 35 21 0 -49 57 -98 138 -118 25 -7 47 -16 49 -21 2 -6 -18 -21
-43 -34 -49 -26 -114 -94 -114 -120 -1 -13 -3 -13 -15 3 -20 26 -48 23 -140
-14 -72 -29 -87 -32 -160 -28 -88 5 -134 24 -156 65 -33 61 7 169 88 244 35
32 50 40 76 37 27 -3 32 -7 30 -28z"/>
<path d="M9199 1862 c-30 -15 -114 -61 -186 -102 -156 -88 -165 -102 -83 -143
58 -29 95 -25 182 19 27 14 52 24 54 21 2 -2 -21 -91 -51 -198 -47 -164 -76
-279 -101 -396 -4 -21 -10 -23 -62 -23 -66 0 -130 -15 -154 -38 -22 -19 -24
-89 -3 -118 13 -20 27 -22 224 -28 271 -10 337 -9 361 4 21 11 41 70 43 134
l2 40 -107 -3 c-108 -3 -108 -3 -108 21 1 38 24 124 129 487 39 134 71 259 71
277 0 76 -108 99 -211 46z"/>
<path d="M11690 1848 c-108 -54 -185 -114 -286 -221 -127 -134 -224 -296 -254
-426 -37 -160 29 -306 155 -340 98 -27 257 -5 345 46 154 91 249 280 211 421
-26 96 -130 164 -253 166 -41 1 -68 5 -68 12 0 15 153 140 237 193 76 48 99
76 95 119 -3 35 -40 72 -72 72 -14 0 -64 -19 -110 -42z m-60 -528 c107 -57 39
-234 -109 -285 -150 -51 -229 35 -177 192 18 54 28 61 126 94 54 19 125 18
160 -1z"/>
<path d="M5434 1865 c-21 -11 -34 -26 -37 -45 -14 -68 44 -160 102 -160 26 0
34 6 51 41 25 49 29 134 7 156 -22 22 -87 26 -123 8z"/>
<path d="M9825 1861 c-217 -62 -363 -329 -275 -501 39 -76 119 -119 230 -124
39 -2 71 -7 71 -11 2 -17 -183 -166 -246 -198 -83 -42 -108 -105 -64 -161 25
-31 42 -32 113 -5 212 79 467 348 562 594 37 95 41 238 7 300 -29 55 -70 91
-122 110 -58 20 -199 19 -276 -4z m196 -172 c50 -36 58 -124 18 -212 -12 -28
-97 -70 -161 -81 -77 -14 -161 27 -173 84 -9 42 30 124 78 165 74 63 183 84
238 44z"/>
<path d="M10650 1864 c-138 -37 -267 -173 -300 -316 -41 -178 65 -309 252
-312 38 0 68 -3 68 -6 0 -8 -88 -91 -140 -132 -25 -20 -73 -52 -107 -72 -69
-41 -83 -59 -83 -109 0 -48 37 -82 82 -73 90 17 258 128 369 243 169 175 278
388 279 544 0 105 -64 204 -150 232 -65 21 -194 21 -270 1z m173 -165 c12 -6
30 -21 39 -33 24 -29 23 -119 -2 -174 -16 -35 -29 -47 -72 -66 -73 -32 -119
-39 -172 -25 -54 13 -96 57 -96 97 1 40 33 103 72 140 61 58 177 89 231 61z"/>
</g>
</svg>
